HIERARCHY
ROOT Hips
{
	OFFSET 0.00000 0.00000 0.00000
	CHANNELS 6 Xposition Yposition Zposition Zrotation Yrotation Xrotation 
	JOINT LHipJoint
	{
		OFFSET 0 0 0
		CHANNELS 3 Zrotation Yrotation Xrotation
		JOINT LeftHip
		{
			OFFSET 1.64577 -1.42384 0.94276
			CHANNELS 3 Zrotation Yrotation Xrotation
			JOINT LeftKnee
			{
				OFFSET 2.11538 -5.81197 0.00000
				CHANNELS 3 Zrotation Yrotation Xrotation
				JOINT LeftAnkle
				{
					OFFSET 2.36541 -6.49893 0.00000
					CHANNELS 3 Zrotation Yrotation Xrotation
					JOINT LeftToe
					{
						OFFSET 0.17759 -0.48793 1.73865
						CHANNELS 3 Zrotation Yrotation Xrotation
						End Site
						{
							OFFSET 0.00000 -0.00000 0.91205
						}
					}
				}
			}
		}
	}
	JOINT RHipJoint
	{
		OFFSET 0 0 0
		CHANNELS 3 Zrotation Yrotation Xrotation
		JOINT RightHip
		{
			OFFSET -1.43750 -1.42384 0.94276
			CHANNELS 3 Zrotation Yrotation Xrotation
			JOINT RightKnee
			{
				OFFSET -2.10480 -5.78291 0.00000
				CHANNELS 3 Zrotation Yrotation Xrotation
				JOINT RightAnkle
				{
					OFFSET -2.34880 -6.45329 0.00000
					CHANNELS 3 Zrotation Yrotation Xrotation
					JOINT RightToe
					{
						OFFSET -0.22842 -0.62757 1.80469
						CHANNELS 3 Zrotation Yrotation Xrotation
						End Site
						{
							OFFSET -0.00000 -0.00000 0.95886
						}
					}
				}
			}
		}
	}
	JOINT lowerback
	{
		OFFSET 0 0 0
		CHANNELS 3 Zrotation Yrotation Xrotation
		JOINT Chest
		{
			OFFSET 0.06217 1.93758 -0.49272
			CHANNELS 3 Zrotation Yrotation Xrotation
			JOINT Chest2
			{
				OFFSET -0.03114 2.03621 -0.05830
				CHANNELS 3 Zrotation Yrotation Xrotation
				JOINT lowerneck
				{
					OFFSET 0 0 0
					CHANNELS 3 Zrotation Yrotation Xrotation
					JOINT Neck
					{
						OFFSET 0.04421 1.41010 0.26562
						CHANNELS 3 Zrotation Yrotation Xrotation
						JOINT Head
						{
							OFFSET -0.13407 1.43847 0.06181
							CHANNELS 3 Zrotation Yrotation Xrotation
							End Site
							{
								OFFSET -0.04980 1.45844 -0.00689
							}
						}
					}
				}
				JOINT LeftCollar
				{
					OFFSET 0 0 0
					CHANNELS 3 Zrotation Yrotation Xrotation
					JOINT LeftShoulder
					{
						OFFSET 2.18382 1.47753 -0.35694
CHANNELS 3 Zrotation Xrotation Yrotation
						JOINT LeftElbow
						{
OFFSET 0 -5.054600 0.000000
CHANNELS 3 Zrotation Xrotation Yrotation
							JOINT LeftWrist
							{
OFFSET 0 -3.390130 0.000000
CHANNELS 3 Zrotation Xrotation Yrotation
								JOINT lhand
								{
									OFFSET 0 0 0
CHANNELS 3 Zrotation Xrotation Yrotation
									JOINT LFingers
									{
OFFSET 0 -0.572420 -0.000000
CHANNELS 3 Zrotation Xrotation Yrotation
										End Site
										{
OFFSET 0 -0.461500 -0.000000
										}
									}
								}
								JOINT LThumb
								{
OFFSET 0 0.000000 0.000000
CHANNELS 3 Zrotation Xrotation Yrotation
									End Site
									{
OFFSET 0 -0.468550 0.468550
									}
								}
							}
						}
					}
				}
				JOINT RightCollar
				{
					OFFSET 0 0 0
					CHANNELS 3 Zrotation Yrotation Xrotation
					JOINT RightShoulder
					{
						OFFSET -2.06033 1.72839 -0.47437
CHANNELS 3 Zrotation Xrotation Yrotation
						JOINT RightElbow
						{
OFFSET 0 -5.070100 0.000000
CHANNELS 3 Zrotation Xrotation Yrotation
							JOINT RightWrist
							{
OFFSET 0 -3.149570 -0.000000
CHANNELS 3 Zrotation Xrotation Yrotation
								JOINT rhand
								{
									OFFSET 0 0 0
CHANNELS 3 Zrotation Xrotation Yrotation
									JOINT RFingers
									{
OFFSET 0 -0.718190 -0.000000
CHANNELS 3 Zrotation Xrotation Yrotation
										End Site
										{
OFFSET 0 -0.579020 -0.000000
										}
									}
								}
								JOINT RThumb
								{
OFFSET 0 0.000000 0.000000
CHANNELS 3 Zrotation Xrotation Yrotation
									End Site
									{
OFFSET 0 -0.587860 0.587860
									}
								}
							}
						}
					}
				}
			}
		}
	}
}
MOTION
Frames: 12
Frame Time: 0.008333333333333333
-27.492000 15.042200 -16.371600 0.037600 3.080600 -0.408100 0.000000 0.000000 0.000000 -23.617900 -19.377500 -1.802900 3.009000 10.709600 31.306700 1.833800 13.523500 -33.465300 0.016400 -0.825600 -2.269200 0.000000 0.000000 0.000000 27.336200 18.637300 0.250600 -2.672000 -10.144100 29.444500 -3.989700 -13.185500 -43.754100 -0.027500 -1.070900 2.944000 1.635900 3.005100 4.373200 -3.026600 4.081600 3.505800 -4.147500 2.120400 1.500700 12.315300 7.188100 -8.388700 -7.114300 9.366300 18.651900 -3.443700 4.716300 8.075900 -0.000000 0.000000 0.000000 7.719200 4.672500 -20.354200 17.298900 -27.250100 4.223300 21.690000 6.175300 -11.691500 0.000000 0.000000 0.000000 -7.125000 0.000000 0.000000 -4.950600 42.482000 -0.308400 -0.000000 0.000000 0.000000 0.614100 7.803300 21.735300 -20.616700 -31.378200 -5.849100 -18.340200 -21.593500 -2.294500 0.000000 0.000000 0.000000 7.125000 0.000000 -0.000000 6.338100 27.545900 2.703800
-27.502458 15.043543 -16.373228 -0.329314 2.967332 -0.389502 0.000000 0.000000 0.000000 -23.116109 -19.227331 -2.014336 3.036806 10.754354 31.455947 1.798892 13.689459 -33.395824 0.031835 -1.148920 -3.158653 0.000000 0.000000 0.000000 27.876286 19.085231 0.449119 -2.647851 -10.101898 29.307203 -4.122957 -12.854191 -44.125826 -0.052051 -1.467305 4.035669 1.799418 3.045438 4.362318 -2.827401 4.138816 3.533447 -4.032326 2.150270 1.536787 12.107587 7.159477 -8.394054 -6.970697 9.322654 18.529646 -3.367368 4.692616 8.013684 0.000000 0.000000 0.000000 7.656242 5.037967 -19.600922 17.122648 -27.019203 4.142939 21.926521 7.999995 -12.658115 0.000000 0.000000 0.000000 -7.125000 0.000000 0.000000 -4.896138 43.535752 -0.177380 0.000000 0.000000 0.000000 0.465912 7.738309 21.923250 -20.727949 -31.509479 -5.907103 -18.457105 -21.940382 -2.204780 0.000000 0.000000 0.000000 7.125000 0.000000 0.000000 6.252950 27.638815 2.653318
-27.505663 15.045686 -16.362451 -0.268905 3.082717 -0.339078 0.000000 0.000000 0.000000 -23.199471 -19.412214 -1.960585 3.043014 10.764390 31.489271 1.821524 13.732330 -33.560738 0.023105 -0.981871 -2.698938 0.000000 0.000000 0.000000 27.810514 19.049875 0.486001 -2.637528 -10.083765 29.248376 -4.166290 -12.744486 -44.245737 -0.062349 -1.611352 4.432738 1.726439 3.016896 4.217670 -2.801723 4.098351 3.555594 -3.954502 2.129678 1.629389 12.066190 7.151590 -8.408047 -7.025572 9.326316 18.501344 -3.378400 4.686357 8.007275 0.000000 0.000000 0.000000 7.597935 5.316910 -19.544844 16.975425 -26.825295 4.076247 22.689737 7.243256 -11.212802 0.000000 0.000000 0.000000 -7.125000 0.000000 0.000000 -3.985828 42.072221 -0.287017 0.000000 0.000000 0.000000 0.366837 7.745510 22.053149 -20.771810 -31.561017 -5.930020 -18.327098 -21.997182 -2.120873 0.000000 0.000000 0.000000 7.125000 0.000000 0.000000 6.357060 27.727867 2.684554
-27.508458 15.045485 -16.353955 -0.222023 3.219729 -0.294532 0.000000 0.000000 0.000000 -23.259682 -19.537604 -1.912531 3.039042 10.758055 31.468179 1.824801 13.749909 -33.593628 0.020456 -0.924041 -2.539770 0.000000 0.000000 0.000000 27.775007 19.038653 0.499880 -2.636229 -10.081529 29.241260 -4.202875 -12.741960 -44.396883 -0.063112 -1.620387 4.457740 1.654148 2.987878 4.098915 -2.761978 4.057317 3.572618 -3.864477 2.108094 1.701331 12.045646 7.155573 -8.433635 -7.090967 9.345863 18.508007 -3.393922 4.688244 8.017862 0.000000 0.000000 0.000000 7.521407 5.478292 -19.524581 16.769069 -26.552278 3.983616 23.043650 6.639273 -10.366764 0.000000 0.000000 0.000000 -7.125000 0.000000 0.000000 -3.556472 41.197623 -0.333970 0.000000 0.000000 0.000000 0.271122 7.764681 22.164152 -20.817595 -31.614783 -5.954034 -18.332404 -22.025484 -1.954231 0.000000 0.000000 0.000000 7.125000 0.000000 0.000000 6.361727 27.902242 2.660179
-27.511325 15.044090 -16.347923 -0.136432 3.382673 -0.263959 0.000000 0.000000 0.000000 -23.352460 -19.614543 -1.880529 3.033117 10.748468 31.436202 1.817916 13.731922 -33.539647 0.020149 -0.915823 -2.517137 0.000000 0.000000 0.000000 27.684072 18.959119 0.473675 -2.640159 -10.088404 29.263494 -4.209486 -12.823231 -44.469792 -0.053406 -1.490798 4.100376 1.576866 2.965154 4.021691 -2.755806 4.025177 3.585929 -3.809281 2.090964 1.749424 12.081329 7.158803 -8.455134 -7.176466 9.361155 18.530594 -3.425845 4.690346 8.036652 0.000000 0.000000 0.000000 7.472194 5.475197 -19.572132 16.534804 -26.240343 3.879416 22.695162 6.287010 -10.174024 0.000000 0.000000 0.000000 -7.125000 0.000000 0.000000 -3.839422 40.957698 -0.383162 0.000000 0.000000 0.000000 0.232575 7.797254 22.218726 -20.841390 -31.642742 -5.966533 -18.305102 -22.002641 -1.863096 0.000000 0.000000 0.000000 7.125000 0.000000 0.000000 6.387646 27.997804 2.656676
-27.515931 15.042056 -16.345485 -0.039497 3.533362 -0.257087 0.000000 0.000000 0.000000 -23.431244 -19.583379 -1.887464 3.026769 10.738197 31.401917 1.789808 13.738147 -33.382153 0.026734 -1.055721 -2.902129 0.000000 0.000000 0.000000 27.595182 18.896687 0.455838 -2.647069 -10.100590 29.303049 -4.210980 -12.902207 -44.520095 -0.045521 -1.377026 3.786860 1.541228 2.960176 4.009165 -2.804742 4.018715 3.601502 -3.838645 2.088363 1.773308 12.154146 7.150342 -8.467857 -7.222768 9.345570 18.529921 -3.454424 4.683795 8.043139 0.000000 0.000000 0.000000 7.510708 5.308501 -19.644763 16.313988 -25.944434 3.782234 21.955694 6.430079 -10.575486 0.000000 0.000000 0.000000 -7.125000 0.000000 0.000000 -4.546794 41.318840 -0.413711 0.000000 0.000000 0.000000 0.305025 7.801533 22.183821 -20.824928 -31.623425 -5.957885 -18.158350 -21.921845 -1.910696 0.000000 0.000000 0.000000 7.125000 0.000000 0.000000 6.498026 27.948960 2.710594
-27.520817 15.040685 -16.345114 0.048314 3.687683 -0.244405 0.000000 0.000000 0.000000 -23.480564 -19.508577 -1.944736 3.022999 10.732141 31.381807 1.750735 13.728712 -33.146599 0.040765 -1.302338 -3.581181 0.000000 0.000000 0.000000 27.500499 18.797744 0.407450 -2.651945 -10.109132 29.330882 -4.203670 -12.952613 -44.517982 -0.040112 -1.292381 3.553636 1.558314 2.957726 4.012228 -2.890504 4.017455 3.614291 -3.936813 2.090115 1.792567 12.220288 7.137208 -8.492787 -7.197949 9.308593 18.528202 -3.460199 4.672222 8.045702 0.000000 0.000000 0.000000 7.607453 5.048304 -19.818372 16.188402 -25.775430 3.727554 21.592810 6.781111 -10.940025 0.000000 0.000000 0.000000 -7.125000 0.000000 0.000000 -4.921220 41.672758 -0.405002 0.000000 0.000000 0.000000 0.454597 7.760902 22.103244 -20.777444 -31.567654 -5.933014 -18.074930 -21.791972 -1.936925 0.000000 0.000000 0.000000 7.125000 0.000000 0.000000 6.560782 27.922132 2.741347
-27.524836 15.041134 -16.344866 0.075931 3.828678 -0.219082 0.000000 0.000000 0.000000 -23.471446 -19.504395 -2.003060 3.022200 10.730933 31.377666 1.729365 13.666827 -32.971398 0.050802 -1.453933 -3.998758 0.000000 0.000000 0.000000 27.453556 18.684970 0.338990 -2.651232 -10.107830 29.326690 -4.182617 -13.022721 -44.469995 -0.033262 -1.176714 3.235264 1.615374 2.946357 3.997885 -2.948154 4.004889 3.617799 -4.027276 2.086462 1.811711 12.240630 7.132234 -8.520314 -7.129886 9.282058 18.542612 -3.442851 4.666266 8.050737 0.000000 0.000000 0.000000 7.662910 4.869601 -20.125880 16.312792 -25.942847 3.781803 21.995019 7.224434 -11.116864 0.000000 0.000000 0.000000 -7.125000 0.000000 0.000000 -4.590141 41.900640 -0.352056 0.000000 0.000000 0.000000 0.566143 7.702265 22.096732 -20.731476 -31.513572 -5.908988 -18.220011 -21.691027 -1.834879 0.000000 0.000000 0.000000 7.125000 0.000000 0.000000 6.454661 28.027925 2.680308
-27.527868 15.043564 -16.343918 0.047236 3.913116 -0.189026 0.000000 0.000000 0.000000 -23.434753 -19.627153 -1.999618 3.021327 10.729545 31.373044 1.750342 13.522365 -32.977740 0.044010 -1.352979 -3.720533 0.000000 0.000000 0.000000 27.430676 18.519894 0.223959 -2.647832 -10.101954 29.307480 -4.121868 -13.141530 -44.283986 -0.020389 -0.917014 2.520616 1.665768 2.927843 3.958272 -2.947478 3.981516 3.613311 -4.052330 2.076096 1.830793 12.215793 7.148392 -8.520655 -7.071415 9.297318 18.553488 -3.417287 4.676852 8.052132 0.000000 0.000000 0.000000 7.617733 4.920592 -20.536187 16.819291 -26.618232 4.006484 22.514839 7.651514 -11.627166 0.000000 0.000000 0.000000 -7.125000 0.000000 0.000000 -4.201685 42.499039 -0.260190 0.000000 0.000000 0.000000 0.568889 7.652558 22.238511 -20.712433 -31.491147 -5.898993 -18.490023 -21.710103 -1.708705 0.000000 0.000000 0.000000 7.125000 0.000000 0.000000 6.253381 28.158411 2.576304
-27.530774 15.045701 -16.342027 0.002165 3.901284 -0.174056 0.000000 0.000000 0.000000 -23.410213 -19.785158 -1.924924 3.017295 10.722992 31.351288 1.776464 13.503830 -33.116067 0.032910 -1.171319 -3.220248 0.000000 0.000000 0.000000 27.414084 18.346449 0.093953 -2.648318 -10.102663 29.309835 -4.044005 -13.239768 -44.014533 -0.009224 -0.618400 1.699243 1.699908 2.916700 3.906259 -2.929104 3.967286 3.615808 -4.049128 2.069930 1.862332 12.219262 7.183144 -8.500939 -7.075815 9.347088 18.534326 -3.413972 4.700591 8.047924 0.000000 0.000000 0.000000 7.565224 5.204306 -21.142737 17.711545 -27.784805 4.414674 22.571161 7.390674 -12.034178 0.000000 0.000000 0.000000 -7.125000 0.000000 0.000000 -4.212823 42.940570 -0.214523 0.000000 0.000000 0.000000 0.542226 7.582144 22.400333 -20.710462 -31.488863 -5.897974 -18.640853 -21.766839 -1.692425 0.000000 0.000000 0.000000 7.125000 0.000000 0.000000 6.137908 28.174673 2.525854
-27.534542 15.046381 -16.339455 -0.031632 3.807893 -0.176442 0.000000 0.000000 0.000000 -23.398465 -19.863768 -1.831849 3.010522 10.712180 31.315067 1.774374 13.696141 -33.258400 0.030726 -1.131395 -3.110313 0.000000 0.000000 0.000000 27.413264 18.238938 -0.005304 -2.654813 -10.114191 29.347195 -3.990928 -13.263865 -43.804774 -0.005142 -0.464937 1.277409 1.717899 2.921391 3.854873 -2.920955 3.973936 3.627949 -4.047428 2.074258 1.904730 12.277657 7.216994 -8.480042 -7.154123 9.400450 18.491670 -3.443801 4.723220 8.042332 0.000000 0.000000 0.000000 7.593377 5.610751 -22.037203 18.856429 -29.239089 4.960853 22.138473 6.089682 -11.896843 0.000000 0.000000 0.000000 -7.125000 0.000000 0.000000 -4.580785 42.747760 -0.255215 0.000000 0.000000 0.000000 0.552023 7.489659 22.440140 -20.722736 -31.503278 -5.904397 -18.620053 -21.735487 -1.756709 0.000000 0.000000 0.000000 7.125000 0.000000 0.000000 6.150524 28.107427 2.540982
-27.539338 15.045656 -16.336650 -0.002364 3.680209 -0.202068 0.000000 0.000000 0.000000 -23.447188 -19.864097 -1.737105 3.003827 10.701233 31.278876 1.753015 13.982083 -33.366246 0.033622 -1.183621 -3.254231 0.000000 0.000000 0.000000 27.406108 18.247590 -0.007320 -2.664586 -10.131203 29.402483 -3.969857 -13.280075 -43.725024 -0.004419 -0.427862 1.175587 1.641552 2.933427 3.821771 -2.916427 3.988324 3.648131 -3.997621 2.080320 1.939557 12.351126 7.239700 -8.469911 -7.270402 9.442790 18.457115 -3.489860 4.738236 8.042878 0.000000 0.000000 0.000000 7.680160 5.986297 -23.130655 20.024161 -30.670815 5.544008 21.954030 4.272918 -11.346282 0.000000 0.000000 0.000000 -7.125000 0.000000 0.000000 -4.661198 42.141129 -0.329488 0.000000 0.000000 0.000000 0.561684 7.410868 22.389108 -20.757591 -31.544289 -5.922594 -18.552294 -21.642394 -1.806257 0.000000 0.000000 0.000000 7.125000 0.000000 0.000000 6.200191 28.055799 2.569294
